<svg xmlns="http://www.w3.org/2000/svg" width="120" height="120" viewBox="0 0 120 120"><rect width="120" height="120" rx="27" fill="#E55509"></rect><g transform="rotate(-10 60 60)"><path d="M26,36 L94,36 A8,8 0 0 1 102,44 L102,54 A6,6 0 0 0 102,66 L102,76 A8,8 0 0 1 94,84 L26,84 A8,8 0 0 1 18,76 L18,66 A6,6 0 0 0 18,54 L18,44 A8,8 0 0 1 26,36 Z" transform="translate(3,4)" fill="#AE3C04"></path><path d="M26,36 L94,36 A8,8 0 0 1 102,44 L102,54 A6,6 0 0 0 102,66 L102,76 A8,8 0 0 1 94,84 L26,84 A8,8 0 0 1 18,76 L18,66 A6,6 0 0 0 18,54 L18,44 A8,8 0 0 1 26,36 Z" fill="#FFFFFF"></path><line x1="82" y1="42" x2="82" y2="78" stroke="#E55509" stroke-width="2" stroke-dasharray="3 4"></line><circle cx="92" cy="50" r="4" fill="#E55509"></circle><g transform="translate(99,0) scale(-1,1)"><path d="M31,46 L48,46 C59,46 66,52 69.5,62 C70.8,65.8 68.5,68.5 64.5,68.5 L31,68.5 C28.2,68.5 27,67 27,64.5 L27,50 C27,47.5 28.2,46 31,46 Z" fill="#E55509"></path><rect x="32" y="50.5" width="10" height="8.5" rx="2" fill="#FFFFFF"></rect><path d="M47,50.5 C53,50.5 57,53.5 59.5,59 L47,59 Z" fill="#FFFFFF"></path><line x1="29" y1="76" x2="68" y2="76" stroke="#410200" stroke-width="4" stroke-linecap="round"></line></g></g></svg>