<svg xmlns="http://www.w3.org/2000/svg" viewBox="209.5 357.83 176 79" class="rs-art" aria-hidden="true" focusable="false"><style>@media (prefers-color-scheme: dark){.trm-bf0{fill:#8b8d8e}.trm-bf2{fill:#747577}.trm-bs2{stroke:#747577}.trm-bs0{stroke:#8b8d8e}.trm-bf3{fill:#5a5c5d}}:root[data-theme='dark'] .trm-bf0{fill:#8b8d8e}:root[data-theme='dark'] .trm-bf2{fill:#747577}:root[data-theme='dark'] .trm-bs2{stroke:#747577}:root[data-theme='dark'] .trm-bs0{stroke:#8b8d8e}:root[data-theme='dark'] .trm-bf3{fill:#5a5c5d}:root[data-theme='light'] .trm-bf0{fill:#dbdcdc}:root[data-theme='light'] .trm-bf2{fill:#b4b4b5}:root[data-theme='light'] .trm-bs2{stroke:#b4b4b5}:root[data-theme='light'] .trm-bs0{stroke:#dbdcdc}:root[data-theme='light'] .trm-bf3{fill:#888888}</style><defs><clipPath id="trm-b-clippath-3"><path d="M382.48,376.64h-170.08v-6.5c0-3.13,2.54-5.67,5.67-5.67h158.74c3.13,0,5.67,2.54,5.67,5.67v6.5Z" fill="none"/></clipPath></defs>  <g id="C371"><g><rect x="212.4" y="364.47" width="170.08" height="56.69" rx="5.67" ry="5.67" fill="#dbdcdc" class="trm-bf0"/><rect x="212.4" y="400.8" width="170.08" height="8.5" fill="#036eb7"/><g><rect x="227.88" y="417.4" width="34.02" height="3.76" fill="#b4b4b5" class="trm-bf2"/><rect x="280.43" y="417.4" width="34.02" height="3.76" fill="#b4b4b5" class="trm-bf2"/><rect x="332.99" y="417.4" width="34.02" height="3.76" fill="#b4b4b5" class="trm-bf2"/></g><g><g><path d="M361.33,376.64v39.76h-10.76v-39.76h10.76M362.33,375.64h-12.76v41.76h12.76v-41.76h0Z" fill="#036eb7"/><path d="M349.58,376.64v39.76h-10.76v-39.76h10.76M350.58,375.64h-12.76v41.76h12.76v-41.76h0Z" fill="#036eb7"/></g><g><path d="M308.7,376.64v39.76h-10.76v-39.76h10.76M309.7,375.64h-12.76v41.76h12.76v-41.76h0Z" fill="#036eb7"/><path d="M296.94,376.64v39.76h-10.76v-39.76h10.76M297.94,375.64h-12.76v41.76h12.76v-41.76h0Z" fill="#036eb7"/></g><g><path d="M256.14,376.64v39.76h-10.76v-39.76h10.76M257.14,375.64h-12.76v41.76h12.76v-41.76h0Z" fill="#036eb7"/><path d="M244.38,376.64v39.76h-10.76v-39.76h10.76M245.38,375.64h-12.76v41.76h12.76v-41.76h0Z" fill="#036eb7"/></g></g><path d="M376.81,365.47c2.57,0,4.67,2.09,4.67,4.67v45.35c0,2.57-2.09,4.67-4.67,4.67h-158.74c-2.57,0-4.67-2.09-4.67-4.67v-45.35c0-2.57,2.09-4.67,4.67-4.67h158.74M376.81,364.47h-158.74c-3.13,0-5.67,2.54-5.67,5.67v45.35c0,3.13,2.54,5.67,5.67,5.67h158.74c3.13,0,5.67-2.54,5.67-5.67v-45.35c0-3.13-2.54-5.67-5.67-5.67h0Z" fill="#036eb7"/><g clip-path="url(#trm-b-clippath-3)"><line x1="212.4" y1="372.22" x2="382.48" y2="372.22" stroke-width="2px" fill="none" stroke-miterlimit="10" stroke="#b4b4b5" class="trm-bs2"/><rect x="203.12" y="358.58" width="183.82" height="11.55" fill="#b4b4b5" class="trm-bf2"/><line x1="212.4" y1="368.47" x2="382.48" y2="368.47" fill="none" stroke-miterlimit="10" stroke="#dbdcdc" class="trm-bs0"/></g><path d="M376.81,365.47c2.57,0,4.67,2.09,4.67,4.67v5.5h-168.08v-5.5c0-2.57,2.09-4.67,4.67-4.67h158.74M376.81,364.47h-158.74c-3.13,0-5.67,2.54-5.67,5.67v6.5h170.08v-6.5c0-3.13-2.54-5.67-5.67-5.67h0Z" fill="#036eb7"/><g><g><path d="M237.51,429.58c-2.46,0-4.46-2-4.46-4.46s2-4.46,4.46-4.46,4.46,2,4.46,4.46-2,4.46-4.46,4.46Z" fill="#888888" class="trm-bf3"/><path d="M237.51,421.16c2.19,0,3.96,1.77,3.96,3.96s-1.77,3.96-3.96,3.96-3.96-1.77-3.96-3.96,1.77-3.96,3.96-3.96M237.51,420.16c-2.74,0-4.96,2.23-4.96,4.96s2.23,4.96,4.96,4.96,4.96-2.23,4.96-4.96-2.23-4.96-4.96-4.96h0Z" fill="#036eb7"/></g><g><path d="M248.85,429.58c-2.46,0-4.46-2-4.46-4.46s2-4.46,4.46-4.46,4.46,2,4.46,4.46-2,4.46-4.46,4.46Z" fill="#888888" class="trm-bf3"/><path d="M248.85,421.16c2.19,0,3.96,1.77,3.96,3.96s-1.77,3.96-3.96,3.96-3.96-1.77-3.96-3.96,1.77-3.96,3.96-3.96M248.85,420.16c-2.74,0-4.96,2.23-4.96,4.96s2.23,4.96,4.96,4.96,4.96-2.23,4.96-4.96-2.23-4.96-4.96-4.96h0Z" fill="#036eb7"/></g><g><path d="M346.04,429.58c-2.46,0-4.46-2-4.46-4.46s2-4.46,4.46-4.46,4.46,2,4.46,4.46-2,4.46-4.46,4.46Z" fill="#888888" class="trm-bf3"/><path d="M346.04,421.16c2.19,0,3.96,1.77,3.96,3.96s-1.77,3.96-3.96,3.96-3.96-1.77-3.96-3.96,1.77-3.96,3.96-3.96M346.04,420.16c-2.74,0-4.96,2.23-4.96,4.96s2.23,4.96,4.96,4.96,4.96-2.23,4.96-4.96-2.23-4.96-4.96-4.96h0Z" fill="#036eb7"/></g><g><path d="M357.37,429.58c-2.46,0-4.46-2-4.46-4.46s2-4.46,4.46-4.46,4.46,2,4.46,4.46-2,4.46-4.46,4.46Z" fill="#888888" class="trm-bf3"/><path d="M357.37,421.16c2.19,0,3.96,1.77,3.96,3.96s-1.77,3.96-3.96,3.96-3.96-1.77-3.96-3.96,1.77-3.96,3.96-3.96M357.37,420.16c-2.74,0-4.96,2.23-4.96,4.96s2.23,4.96,4.96,4.96,4.96-2.23,4.96-4.96-2.23-4.96-4.96-4.96h0Z" fill="#036eb7"/></g></g><g><g><rect x="277.89" y="420.91" width="40.16" height="6.09" fill="#3e3a39"/><path d="M317.54,421.41v5.09h-39.16v-5.09h39.16M318.54,420.41h-41.16v7.09h41.16v-7.09h0Z" fill="#036eb7"/></g><g><rect x="257.83" y="420.91" width="13.39" height="6.09" fill="#3e3a39"/><path d="M270.72,421.41v5.09h-12.39v-5.09h12.39M271.72,420.41h-14.39v7.09h14.39v-7.09h0Z" fill="#036eb7"/></g><g><rect x="323.55" y="420.91" width="13.5" height="6.09" fill="#3e3a39"/><path d="M336.55,421.41v5.09h-12.5v-5.09h12.5M337.55,420.41h-14.5v7.09h14.5v-7.09h0Z" fill="#036eb7"/></g></g><g><rect x="342.53" y="400.8" width="13.42" height="8.5" fill="#036eb7"/><rect x="289.34" y="400.8" width="13.42" height="8.5" fill="#036eb7"/><rect x="236.6" y="400.8" width="13.42" height="8.5" fill="#036eb7"/></g><g><rect x="261.24" y="380.76" width="19.84" height="14.88" rx="2.83" ry="2.83" fill="#595757"/><rect x="313.84" y="380.76" width="19.84" height="14.88" rx="2.83" ry="2.83" fill="#595757"/><rect x="366.59" y="380.76" width="11.34" height="14.88" rx="2.83" ry="2.83" fill="#595757"/><path d="M355.96,395.64h0c-1.57,0-2.83-1.27-2.83-2.83v-9.21c0-1.57,1.27-2.83,2.83-2.83h0c1.57,0,2.83,1.27,2.83,2.83v9.21c0,1.57-1.27,2.83-2.83,2.83Z" fill="#595757"/><path d="M344.2,395.64h0c-1.57,0-2.83-1.27-2.83-2.83v-9.21c0-1.57,1.27-2.83,2.83-2.83h0c1.57,0,2.83,1.27,2.83,2.83v9.21c0,1.57-1.27,2.83-2.83,2.83Z" fill="#595757"/><path d="M303.32,395.64h0c-1.57,0-2.83-1.27-2.83-2.83v-9.21c0-1.57,1.27-2.83,2.83-2.83h0c1.57,0,2.83,1.27,2.83,2.83v9.21c0,1.57-1.27,2.83-2.83,2.83Z" fill="#595757"/><path d="M290.78,395.64h0c-1.57,0-2.83-1.27-2.83-2.83v-9.21c0-1.57,1.27-2.83,2.83-2.83h0c1.57,0,2.83,1.27,2.83,2.83v9.21c0,1.57-1.27,2.83-2.83,2.83Z" fill="#595757"/><path d="M250.76,395.64h0c-1.57,0-2.83-1.27-2.83-2.83v-9.21c0-1.57,1.27-2.83,2.83-2.83h0c1.57,0,2.83,1.27,2.83,2.83v9.21c0,1.57-1.27,2.83-2.83,2.83Z" fill="#595757"/><path d="M239.01,395.64h0c-1.57,0-2.83-1.27-2.83-2.83v-9.21c0-1.57,1.27-2.83,2.83-2.83h0c1.57,0,2.83,1.27,2.83,2.83v9.21c0,1.57-1.27,2.83-2.83,2.83Z" fill="#595757"/><rect x="216.78" y="380.76" width="11.34" height="14.88" rx="2.83" ry="2.83" fill="#595757"/><rect x="316.67" y="380.76" width="13.63" height="5.67" fill="#3e3a39"/></g><g><rect x="231.63" y="399.11" width="1" height="12.5" fill="#dbdcdc" class="trm-bf0"/><rect x="257.14" y="399.11" width="1" height="12.5" fill="#dbdcdc" class="trm-bf0"/><rect x="284.18" y="399.11" width="1" height="12.5" fill="#dbdcdc" class="trm-bf0"/><rect x="309.7" y="399.11" width="1" height="12.5" fill="#dbdcdc" class="trm-bf0"/><rect x="336.82" y="399.11" width="1" height="12.5" fill="#dbdcdc" class="trm-bf0"/><rect x="362.33" y="399.11" width="1" height="12.5" fill="#dbdcdc" class="trm-bf0"/></g></g></g></svg>
