<svg xmlns="http://www.w3.org/2000/svg" xmlns:xlink="http://www.w3.org/1999/xlink" viewBox="53.83 58.50 176 79" class="rs-art" aria-hidden="true" focusable="false">
  <defs>
    <style>
      .y-c1 { fill: #ecc040; }
      .y-c2 { fill: #fff; }
      .y-c4 { fill: none; }
      .y-c5 { fill: #f5d020; }
      .y-c6 { fill: #c8c9ca; }
      .y-c7 { clip-path: url(#y-clippath-1); }
      .y-c8 { fill: #595857; }
      .y-c9 { fill: #717072; }
      .y-c10, .y-c11 { fill: #efeeef; }
      .y-c10, .y-c4 { stroke: #f5d020;
        stroke-miterlimit: 10; }
      .y-c12 { fill: #f5d021; }
      .y-c14 { fill: #3e3b3a; }
      .y-c15 { clip-path: url(#y-clippath); }
      .y-c16 { fill: #b5b4b5; }

      /* Dark mode — night livery, see NIGHT_BODY / PER_CAR in tools/extract.js. */
      @media (prefers-color-scheme: dark) {
        .y-c2 { fill: #626b76 }
        .y-c6 { fill: #505a63 }
        .y-c9 { fill: #39424a }
        .y-c10, .y-c11 { fill: #5c656f }
        .y-c16 { fill: #4b545d }
      }
      :root[data-theme='dark'] .y-c2 { fill: #626b76 }
      :root[data-theme='dark'] .y-c6 { fill: #505a63 }
      :root[data-theme='dark'] .y-c9 { fill: #39424a }
      :root[data-theme='dark'] .y-c10, :root[data-theme='dark'] .y-c11 { fill: #5c656f }
      :root[data-theme='dark'] .y-c16 { fill: #4b545d }
      :root[data-theme='light'] .y-c2 { fill: #fff; }
      :root[data-theme='light'] .y-c6 { fill: #c8c9ca; }
      :root[data-theme='light'] .y-c9 { fill: #717072; }
      :root[data-theme='light'] .y-c10, :root[data-theme='light'] .y-c11 { fill: #efeeef; }
      :root[data-theme='light'] .y-c16 { fill: #b5b4b5; }
    </style>
    <clipPath id="y-clippath-1">
      <path class="y-c3" d="M226.77,80.76H56.69v-6.5c0-3.13,2.54-5.67,5.67-5.67h158.74c3.13,0,5.67,2.54,5.67,5.67v6.5Z"/>
    </clipPath>
    <clipPath id="y-clippath">
      <rect class="y-c4" x="56.69" y="68.59" width="170.08" height="56.69" rx="5.67" ry="5.67"/>
    </clipPath>
  </defs>
  <g id="y610">
  <rect class="y-c2" x="56.69" y="68.59" width="170.08" height="56.69" rx="5.67" ry="5.67"/>
  <g>
    <g class="y-c15">
      <rect class="y-c10" x="57.17" y="103.05" width="169.6" height="26.19"/>
    </g>
    <rect class="y-c4" x="56.69" y="68.59" width="170.08" height="56.69" rx="5.67" ry="5.67"/>
  </g>
  <rect class="y-c14" x="56.69" y="79.76" width="170.08" height="24.09"/>
  <rect class="y-c5" x="57.17" y="103.85" width="169.6" height="5.67"/>
  <g>
    <rect class="y-c6" x="72.17" y="121.52" width="34.02" height="3.76"/>
    <rect class="y-c6" x="124.72" y="121.52" width="34.02" height="3.76"/>
    <rect class="y-c6" x="177.28" y="121.52" width="34.02" height="3.76"/>
  </g>
  <g>
    <rect class="y-c2" x="76.92" y="80.76" width="24.51" height="1"/>
    <rect class="y-c2" x="129.48" y="80.76" width="24.51" height="1"/>
    <rect class="y-c2" x="182.11" y="80.76" width="24.51" height="1"/>
  </g>
  <g>
    <g>
      <path class="y-c5" d="M205.63,80.76v39.76h-10.76v-39.76h10.76M206.63,79.76h-12.76v41.76h12.76v-41.76h0Z"/>
      <path class="y-c5" d="M193.87,80.76v39.76h-10.76v-39.76h10.76M194.87,79.76h-12.76v41.76h12.76v-41.76h0Z"/>
    </g>
    <g>
      <path class="y-c5" d="M152.99,80.76v39.76h-10.76v-39.76h10.76M153.99,79.76h-12.76v41.76h12.76v-41.76h0Z"/>
      <path class="y-c5" d="M141.23,80.76v39.76h-10.76v-39.76h10.76M142.23,79.76h-12.76v41.76h12.76v-41.76h0Z"/>
    </g>
    <g>
      <path class="y-c5" d="M100.43,80.76v39.76h-10.76v-39.76h10.76M101.43,79.76h-12.76v41.76h12.76v-41.76h0Z"/>
      <path class="y-c5" d="M88.68,80.76v39.76h-10.76v-39.76h10.76M89.68,79.76h-12.76v41.76h12.76v-41.76h0Z"/>
    </g>
  </g>
  <g>
    <rect class="y-c14" x="75.92" y="103.05" width="1" height="6.48"/>
    <rect class="y-c14" x="101.43" y="103.05" width="1" height="6.48"/>
    <rect class="y-c14" x="128.48" y="103.05" width="1" height="6.48"/>
    <rect class="y-c14" x="153.99" y="103.05" width="1" height="6.48"/>
    <rect class="y-c14" x="181.11" y="103.05" width="1" height="6.48"/>
    <rect class="y-c14" x="206.63" y="103.05" width="1" height="6.48"/>
  </g>
  <path class="y-c1" d="M221.1,69.59c2.57,0,4.67,2.09,4.67,4.67v45.35c0,2.57-2.09,4.67-4.67,4.67H62.36c-2.57,0-4.67-2.09-4.67-4.67v-45.35c0-2.57,2.09-4.67,4.67-4.67h158.74M221.1,68.59H62.36c-3.13,0-5.67,2.54-5.67,5.67v45.35c0,3.13,2.54,5.67,5.67,5.67h158.74c3.13,0,5.67-2.54,5.67-5.67v-45.35c0-3.13-2.54-5.67-5.67-5.67h0Z"/>
  <path class="y-c5" d="M221.1,69.59c2.57,0,4.67,2.09,4.67,4.67v5.5H57.69v-5.5c0-2.57,2.09-4.67,4.67-4.67h158.74M221.1,68.59H62.36c-3.13,0-5.67,2.54-5.67,5.67v6.5h170.08v-6.5c0-3.13-2.54-5.67-5.67-5.67h0Z"/>
  <g class="y-c7">
    <rect class="y-c12" x="33.27" y="68.59" width="216.72" height="4.25"/>
  </g>
  <g>
    <g>
      <path class="y-c9" d="M81.8,133.7c-2.46,0-4.46-2-4.46-4.46s2-4.46,4.46-4.46,4.46,2,4.46,4.46-2,4.46-4.46,4.46Z"/>
      <path class="y-c5" d="M81.8,125.28c2.19,0,3.96,1.77,3.96,3.96s-1.77,3.96-3.96,3.96-3.96-1.77-3.96-3.96,1.77-3.96,3.96-3.96M81.8,124.28c-2.74,0-4.96,2.23-4.96,4.96s2.23,4.96,4.96,4.96,4.96-2.23,4.96-4.96-2.23-4.96-4.96-4.96h0Z"/>
    </g>
    <g>
      <path class="y-c9" d="M93.14,133.7c-2.46,0-4.46-2-4.46-4.46s2-4.46,4.46-4.46,4.46,2,4.46,4.46-2,4.46-4.46,4.46Z"/>
      <path class="y-c5" d="M93.14,125.28c2.19,0,3.96,1.77,3.96,3.96s-1.77,3.96-3.96,3.96-3.96-1.77-3.96-3.96,1.77-3.96,3.96-3.96M93.14,124.28c-2.74,0-4.96,2.23-4.96,4.96s2.23,4.96,4.96,4.96,4.96-2.23,4.96-4.96-2.23-4.96-4.96-4.96h0Z"/>
    </g>
    <g>
      <path class="y-c9" d="M190.33,133.7c-2.46,0-4.46-2-4.46-4.46s2-4.46,4.46-4.46,4.46,2,4.46,4.46-2,4.46-4.46,4.46Z"/>
      <path class="y-c5" d="M190.33,125.28c2.19,0,3.96,1.77,3.96,3.96s-1.77,3.96-3.96,3.96-3.96-1.77-3.96-3.96,1.77-3.96,3.96-3.96M190.33,124.28c-2.74,0-4.96,2.23-4.96,4.96s2.23,4.96,4.96,4.96,4.96-2.23,4.96-4.96-2.23-4.96-4.96-4.96h0Z"/>
    </g>
    <g>
      <path class="y-c9" d="M201.67,133.7c-2.46,0-4.46-2-4.46-4.46s2-4.46,4.46-4.46,4.46,2,4.46,4.46-2,4.46-4.46,4.46Z"/>
      <path class="y-c5" d="M201.67,125.28c2.19,0,3.96,1.77,3.96,3.96s-1.77,3.96-3.96,3.96-3.96-1.77-3.96-3.96,1.77-3.96,3.96-3.96M201.67,124.28c-2.74,0-4.96,2.23-4.96,4.96s2.23,4.96,4.96,4.96,4.96-2.23,4.96-4.96-2.23-4.96-4.96-4.96h0Z"/>
    </g>
  </g>
  <g>
    <g>
      <rect class="y-c14" x="109.67" y="125.03" width="52.66" height="6.09"/>
      <path class="y-c5" d="M161.83,125.53v5.09h-51.66v-5.09h51.66M162.83,124.53h-53.66v7.09h53.66v-7.09h0Z"/>
    </g>
    <g>
      <rect class="y-c14" x="167.84" y="125.03" width="13.5" height="6.09"/>
      <path class="y-c5" d="M180.84,125.53v5.09h-12.5v-5.09h12.5M181.84,124.53h-14.5v7.09h14.5v-7.09h0Z"/>
    </g>
  </g>
  <g>
    <rect class="y-c8" x="104.82" y="83.01" width="21.26" height="18.43"/>
    <rect class="y-c8" x="157.45" y="83.01" width="21.26" height="18.43"/>
    <rect class="y-c8" x="144.07" y="83.01" width="7.09" height="18.43" rx="1.42" ry="1.42"/>
    <rect class="y-c8" x="132.31" y="83.01" width="7.09" height="18.43" rx="1.42" ry="1.42"/>
    <rect class="y-c8" x="196.62" y="83.01" width="7.09" height="18.43" rx="1.42" ry="1.42"/>
    <rect class="y-c8" x="184.87" y="83.01" width="7.09" height="18.43" rx="1.42" ry="1.42"/>
    <rect class="y-c8" x="91.51" y="83.01" width="7.09" height="18.43" rx="1.42" ry="1.42"/>
    <rect class="y-c8" x="79.76" y="83.01" width="7.09" height="18.43" rx="1.42" ry="1.42"/>
  </g>
  <g>
    <path class="y-c16" d="M104.32,69.09v-3.33c0-1.84,1.5-3.33,3.33-3.33h15.59c1.84,0,3.33,1.5,3.33,3.33v3.33h-22.26Z"/>
    <path class="y-c5" d="M123.25,62.92c1.57,0,2.83,1.27,2.83,2.83v2.83h-21.26v-2.83c0-1.57,1.27-2.83,2.83-2.83h15.59M123.25,61.92h-15.59c-2.11,0-3.83,1.72-3.83,3.83v3.83h23.26v-3.83c0-2.11-1.72-3.83-3.83-3.83h0Z"/>
  </g>
  <g>
    <path class="y-c16" d="M156.95,69.09v-3.33c0-1.84,1.5-3.33,3.33-3.33h15.59c1.84,0,3.34,1.5,3.34,3.33v3.33h-22.26Z"/>
    <path class="y-c5" d="M175.87,62.92c1.57,0,2.83,1.27,2.83,2.83v2.83h-21.26v-2.83c0-1.57,1.27-2.83,2.83-2.83h15.59M175.87,61.92h-15.59c-2.11,0-3.83,1.72-3.83,3.83v3.83h23.26v-3.83c0-2.11-1.72-3.83-3.83-3.83h0Z"/>
  </g>
  <g>
    <path class="y-c11" d="M179.21,69.09v-5.25h30.25c1.84,0,3.33,1.5,3.33,3.33v1.92h-33.59Z"/>
    <path class="y-c5" d="M209.46,64.33c1.57,0,2.83,1.27,2.83,2.83v1.42h-32.59v-4.25h29.75M209.46,63.33h-30.75v6.25h34.59v-2.42c0-2.11-1.72-3.83-3.83-3.83h0Z"/>
  </g>
  <g>
    <path class="y-c11" d="M70.74,69.09v-1.92c0-1.84,1.5-3.33,3.33-3.33h30.25v5.25h-33.59Z"/>
    <path class="y-c5" d="M103.82,64.33v4.25h-32.59v-1.42c0-1.57,1.27-2.83,2.83-2.83h29.75M104.82,63.33h-30.75c-2.11,0-3.83,1.72-3.83,3.83v2.42h34.59v-6.25h0Z"/>
  </g>
  <rect class="y-c11" x="105.44" y="104.56" width="4.25" height="4.25"/>
  <rect class="y-c11" x="157.45" y="104.56" width="4.25" height="4.25"/>
  <rect class="y-c11" x="210.17" y="104.56" width="4.25" height="4.25"/>
</g>
</svg>
